<svg width="24" height="24" viewBox="0 0 24 24" fill="none" xmlns="http://www.w3.org/2000/svg">
<path fill-rule="evenodd" clip-rule="evenodd" d="M15 18C15 18.5523 14.5523 19 14 19H4C3.44771 19 3 18.5523 3 18C3 17.4477 3.44771 17 4 17H14C14.5523 17 15 17.4477 15 18Z" fill="white"/>
<path fill-rule="evenodd" clip-rule="evenodd" d="M21 12C21 12.5523 20.5523 13 20 13H4C3.44772 13 3 12.5523 3 12C3 11.4477 3.44772 11 4 11H20C20.5523 11 21 11.4477 21 12Z" fill="white"/>
<path fill-rule="evenodd" clip-rule="evenodd" d="M11 6C11 6.55228 10.5523 7 10 7H4C3.44772 7 3 6.55228 3 6C3 5.44772 3.44772 5 4 5H10C10.5523 5 11 5.44772 11 6Z" fill="white"/>
</svg>
