<svg width="128" height="48" viewBox="0 0 128 48" fill="none" xmlns="http://www.w3.org/2000/svg">
<path d="M58.1818 0H0V5.84932H54.8571C55.5458 5.84932 56.1039 6.41049 56.1039 7.10274V25.4863C56.1039 26.1786 55.5458 26.7397 54.8571 26.7397H0V32.589H58.1818C60.2475 32.589 61.9221 30.9055 61.9221 28.8288V3.76027C61.9221 1.68354 60.2475 0 58.1818 0Z" fill="white"/>
<path d="M69.8184 0H128V5.84932H73.1431C72.4544 5.84932 71.8963 6.41049 71.8963 7.10274V25.4863C71.8963 26.1786 72.4544 26.7397 73.1431 26.7397H128V32.589H69.8184C67.7527 32.589 66.0781 30.9055 66.0781 28.8288V3.76027C66.0781 1.68354 67.7527 0 69.8184 0Z" fill="white"/>
<path d="M64.0001 38.0205V46.2505H72.1861V47.7467H62.5117V38.0205H64.0001Z" fill="white"/>
<path d="M93.0234 38.0205V46.2505H101.21V47.7467H91.5352V38.0205H93.0234Z" fill="white"/>
<path d="M61.0241 47.7467H59.1637L57.944 45.5022H51.4532L50.2334 47.7467H48.373L53.5822 38.0205H55.8149L61.0241 47.7467ZM54.6987 39.1427L52.094 44.0058H57.3031L54.6987 39.1427Z" fill="white"/>
<path d="M49.8599 38.0205V39.5321H45.3949V47.7467H43.9064V39.5321H39.4414V38.0205H49.8599Z" fill="white"/>
<path d="M36.4652 45.5022V38.0205H37.9537V47.7467H36.4652L29.0234 40.265V47.7467H27.5352V38.0205H29.0234L36.4652 45.5022Z" fill="white"/>
<path d="M24.5572 43.2577H16.3712V46.2352L26.0485 46.1826V47.7467H14.8828V38.0205H26.0456V39.5321H16.3712V41.7614H24.5572V43.2577Z" fill="white"/>
<path d="M125.644 42.6408C126.42 42.7896 127.007 43.0478 127.405 43.4152C127.802 43.7739 128.001 44.2903 128.001 44.9641V45.0165C128.001 45.8304 127.797 46.4297 127.391 46.8147C126.993 47.1998 126.457 47.4492 125.783 47.563C125.118 47.6679 124.184 47.7293 122.983 47.7467H122.29L116.094 47.7337V38.0205H123.62C124.692 38.0293 125.547 38.2392 126.185 38.6506C126.822 39.0619 127.141 39.6437 127.141 40.3964V40.4488C127.141 41.0177 127.017 41.4814 126.767 41.8401C126.517 42.199 126.143 42.4658 125.644 42.6408ZM125.367 40.6719C125.367 40.2694 125.275 39.9763 125.09 39.7924C124.914 39.6088 124.683 39.495 124.397 39.4513C124.11 39.4074 123.699 39.3857 123.163 39.3857H117.582V41.9584C118.007 41.9671 118.727 41.9715 119.143 41.9715C119.559 41.9715 119.952 41.9757 120.321 41.9845C121.19 41.9845 121.652 41.9888 121.708 41.9976H123.163C123.727 41.9976 124.138 41.9801 124.397 41.9452C124.665 41.9101 124.891 41.8008 125.076 41.617C125.27 41.4246 125.367 41.1096 125.367 40.6719ZM117.882 42.1288H117.91L117.882 42.1159V42.1288ZM123.607 46.3292C124.244 46.3292 124.72 46.3073 125.034 46.2634C125.349 46.211 125.598 46.0798 125.783 45.8697C125.977 45.6509 126.074 45.301 126.074 44.8197C126.074 44.3559 125.977 44.0234 125.783 43.8222C125.598 43.612 125.349 43.4852 125.034 43.4416C124.72 43.3889 124.244 43.3628 123.607 43.3628H117.582V46.3029C119.902 46.3029 121.878 46.3117 122.913 46.3292H123.607Z" fill="white"/>
<path fill-rule="evenodd" clip-rule="evenodd" d="M0 38.0205H11.7209C12.6456 38.0205 13.3953 38.7742 13.3953 39.7039V46.0633C13.3953 46.9929 12.6456 47.7467 11.7209 47.7467H0V38.0205ZM10.9768 39.5204C11.4905 39.5204 11.9069 39.9391 11.9069 40.4557V45.3152C11.9069 45.8316 11.4905 46.2503 10.9768 46.2503H1.48837V39.5204H10.9768Z" fill="white"/>
<path d="M77.3945 39.7039C77.3945 38.7742 78.1442 38.0205 79.0689 38.0205H90.0458V39.5169H79.8132C79.2994 39.5169 78.8829 39.9355 78.8829 40.4522V45.3152C78.8829 45.8316 79.2994 46.2505 79.8132 46.2505H90.0458V47.7467H79.0689C78.1442 47.7467 77.3945 46.9931 77.3945 46.0633V39.7039Z" fill="white"/>
<path d="M112.931 47.7467C113.856 47.7467 114.605 46.9931 114.605 46.0633V38.0205H112.745V45.3152C112.745 45.8316 112.328 46.2505 111.815 46.2505H105.117C104.603 46.2505 104.187 45.8316 104.187 45.3152V38.0205H102.326V46.0633C102.326 46.9931 103.076 47.7467 104.001 47.7467H112.931Z" fill="white"/>
</svg>
