<svg width="616" height="292" viewBox="0 0 616 292" fill="none" xmlns="http://www.w3.org/2000/svg">
<path d="M0 248.78H616" stroke="#968164" stroke-width="2.20394"/>
<path d="M13.6768 266.756V268.516H7.7958V285.423H5.881V268.516H0V266.756H13.6768Z" fill="#777C86"/>
<path d="M16.9609 266.756H18.8757V285.423H16.9609V266.756Z" fill="#777C86"/>
<path d="M32.7556 285.743C29.8561 285.743 27.4581 284.81 25.5616 282.943C23.665 281.077 22.7168 278.792 22.7168 276.09C22.7168 273.388 23.665 271.103 25.5616 269.236C27.4581 267.37 29.8561 266.436 32.7556 266.436C34.5244 266.436 36.1474 266.854 37.6245 267.69C39.1016 268.507 40.2413 269.619 41.0437 271.023L39.3478 271.983C38.746 270.845 37.8524 269.939 36.6671 269.263C35.4818 268.587 34.1779 268.25 32.7556 268.25C30.3667 268.25 28.4154 269.005 26.9019 270.516C25.3883 272.028 24.6315 273.885 24.6315 276.09C24.6315 278.294 25.3883 280.152 26.9019 281.663C28.4154 283.174 30.3667 283.93 32.7556 283.93C34.1779 283.93 35.4818 283.592 36.6671 282.917C37.8524 282.241 38.746 281.334 39.3478 280.197L41.0437 281.13C40.2596 282.534 39.1198 283.654 37.6245 284.49C36.1474 285.326 34.5244 285.743 32.7556 285.743Z" fill="#777C86"/>
<path d="M54.041 283.663H63.342V285.423H52.127V266.756H63.205V268.516H54.041V275.13H62.521V276.89H54.041V283.663Z" fill="#777C86"/>
<path d="M84.6837 266.756V285.423H82.7687V269.583L76.0677 280.517H75.7937L69.0917 269.583V285.423H67.1777V266.756H69.5567L75.9307 277.157L82.3037 266.756H84.6837Z" fill="#777C86"/>
<path d="M103.279 283.663H105.331V288.997H103.416V285.423H89.7392V288.997H87.8242V283.663H89.3832C90.6422 282.223 91.2712 280.001 91.2712 276.997V266.756H103.279V283.663ZM91.6542 283.663H101.364V268.516H93.1862V277.05C93.1862 280.001 92.6752 282.206 91.6542 283.663Z" fill="#777C86"/>
<path d="M134.661 266.756H136.631L130.257 281.343C129.619 282.837 128.807 283.912 127.823 284.57C126.838 285.228 125.616 285.512 124.157 285.423V283.717C125.179 283.823 126.017 283.681 126.674 283.29C127.349 282.881 127.905 282.179 128.342 281.183L128.725 280.303L122.133 266.756H124.103L129.628 278.223L134.661 266.756Z" fill="#777C86"/>
<path d="M180.702 286.054C177.806 286.054 175.411 285.106 173.517 283.209C171.623 281.312 170.676 278.991 170.676 276.245C170.676 273.499 171.623 271.178 173.517 269.281C175.411 267.385 177.806 266.436 180.702 266.436C182.469 266.436 184.09 266.861 185.565 267.71C187.04 268.541 188.178 269.67 188.98 271.097L187.286 272.072C186.685 270.916 185.792 269.995 184.609 269.309C183.425 268.622 182.123 268.279 180.702 268.279C178.316 268.279 176.368 269.047 174.856 270.582C173.344 272.118 172.589 274.005 172.589 276.245C172.589 278.485 173.344 280.373 174.856 281.908C176.368 283.444 178.316 284.212 180.702 284.212C182.123 284.212 183.425 283.868 184.609 283.182C185.792 282.495 186.685 281.574 187.286 280.418L188.98 281.366C188.197 282.794 187.058 283.932 185.565 284.781C184.09 285.63 182.469 286.054 180.702 286.054Z" fill="#777C86"/>
<path d="M204.423 266.761V268.55H198.55V285.729H196.637V268.55H190.764V266.761H204.423Z" fill="#777C86"/>
<path d="M222.426 283.209C220.514 285.106 218.174 286.054 215.405 286.054C212.637 286.054 210.297 285.106 208.384 283.209C206.472 281.294 205.516 278.973 205.516 276.245C205.516 273.518 206.472 271.205 208.384 269.309C210.297 267.394 212.637 266.436 215.405 266.436C218.174 266.436 220.514 267.394 222.426 269.309C224.338 271.205 225.295 273.518 225.295 276.245C225.295 278.973 224.338 281.294 222.426 283.209ZM209.723 281.908C211.253 283.444 213.147 284.212 215.405 284.212C217.664 284.212 219.558 283.444 221.087 281.908C222.617 280.355 223.382 278.467 223.382 276.245C223.382 274.023 222.617 272.145 221.087 270.609C219.558 269.056 217.664 268.279 215.405 268.279C213.147 268.279 211.253 269.056 209.723 270.609C208.193 272.145 207.428 274.023 207.428 276.245C207.428 278.467 208.193 280.355 209.723 281.908Z" fill="#777C86"/>
<path d="M246.595 266.761V285.729H244.683V269.634L237.99 280.743H237.717L231.024 269.634V285.729H229.111V266.761H231.488L237.853 277.329L244.218 266.761H246.595Z" fill="#777C86"/>
<path d="M264.239 285.729L262.463 281.068H253.393L251.617 285.729H249.596L256.944 266.761H258.911L266.26 285.729H264.239ZM254.076 279.28H261.78L257.928 269.119L254.076 279.28Z" fill="#777C86"/>
<path d="M279.921 266.761V268.55H274.048V285.729H272.136V268.55H266.262V266.761H279.921Z" fill="#777C86"/>
<path d="M297.924 283.209C296.012 285.106 293.672 286.054 290.904 286.054C288.135 286.054 285.795 285.106 283.883 283.209C281.97 281.294 281.014 278.973 281.014 276.245C281.014 273.518 281.97 271.205 283.883 269.309C285.795 267.394 288.135 266.436 290.904 266.436C293.672 266.436 296.012 267.394 297.924 269.309C299.837 271.205 300.793 273.518 300.793 276.245C300.793 278.973 299.837 281.294 297.924 283.209ZM285.221 281.908C286.751 283.444 288.645 284.212 290.904 284.212C293.162 284.212 295.056 283.444 296.586 281.908C298.116 280.355 298.881 278.467 298.881 276.245C298.881 274.023 298.116 272.145 296.586 270.609C295.056 269.056 293.162 268.279 290.904 268.279C288.645 268.279 286.751 269.056 285.221 270.609C283.691 272.145 282.927 274.023 282.927 276.245C282.927 278.467 283.691 280.355 285.221 281.908Z" fill="#777C86"/>
<path d="M301.738 285.729V284.049C303.068 284.23 304.06 283.823 304.716 282.83C305.39 281.818 305.726 279.976 305.726 277.302V266.761H318.129V285.729H316.217V268.55H307.639V277.356C307.639 279.072 307.502 280.508 307.229 281.665C306.956 282.821 306.546 283.706 306 284.32C305.472 284.916 304.861 285.323 304.169 285.539C303.495 285.738 302.685 285.801 301.738 285.729Z" fill="#777C86"/>
<path d="M338.873 283.209C336.961 285.106 334.621 286.054 331.853 286.054C329.084 286.054 326.744 285.106 324.832 283.209C322.919 281.294 321.963 278.973 321.963 276.245C321.963 273.518 322.919 271.205 324.832 269.309C326.744 267.394 329.084 266.436 331.853 266.436C334.621 266.436 336.961 267.394 338.873 269.309C340.786 271.205 341.742 273.518 341.742 276.245C341.742 278.973 340.786 281.294 338.873 283.209ZM326.17 281.908C327.7 283.444 329.594 284.212 331.853 284.212C334.111 284.212 336.005 283.444 337.535 281.908C339.065 280.355 339.83 278.467 339.83 276.245C339.83 274.023 339.065 272.145 337.535 270.609C336.005 269.056 334.111 268.279 331.853 268.279C329.594 268.279 327.7 269.056 326.17 270.609C324.64 272.145 323.876 274.023 323.876 276.245C323.876 278.467 324.64 280.355 326.17 281.908Z" fill="#777C86"/>
<path d="M356.213 266.761V268.55H347.471V285.729H345.559V266.761H356.213Z" fill="#777C86"/>
<path d="M371.79 285.729V270.284L361.135 285.729H359.496V266.761H361.409V282.206L372.063 266.761H373.702V285.729H371.79Z" fill="#777C86"/>
<path d="M389.402 266.761H391.314V285.729H389.402V277.736C387.744 278.548 386.014 278.955 384.211 278.955C382.39 278.955 380.933 278.449 379.84 277.437C378.747 276.426 378.201 275.125 378.201 273.536V266.761H380.113V273.536C380.113 274.638 380.468 275.523 381.179 276.191C381.907 276.841 382.918 277.167 384.211 277.167C386.014 277.167 387.744 276.76 389.402 275.947V266.761Z" fill="#777C86"/>
<path d="M398.145 283.941H407.433V285.729H396.232V266.761H407.296V268.55H398.145V275.27H406.613V277.058H398.145V283.941Z" fill="#777C86"/>
<path d="M110.145 283.941H119.433V285.729H108.232V266.761H119.296V268.55H110.145V275.27H118.613V277.058H110.145V283.941Z" fill="#777C86"/>
<path d="M420.065 286.054C417.169 286.054 414.774 285.106 412.88 283.209C410.986 281.312 410.039 278.991 410.039 276.245C410.039 273.499 410.986 271.178 412.88 269.281C414.774 267.385 417.169 266.436 420.065 266.436C421.831 266.436 423.452 266.861 424.927 267.71C426.403 268.541 427.541 269.67 428.342 271.097L426.648 272.072C426.047 270.916 425.155 269.995 423.971 269.309C422.787 268.622 421.485 268.279 420.065 268.279C417.679 268.279 415.73 269.047 414.219 270.582C412.707 272.118 411.951 274.005 411.951 276.245C411.951 278.485 412.707 280.373 414.219 281.908C415.73 283.444 417.679 284.212 420.065 284.212C421.485 284.212 422.787 283.868 423.971 283.182C425.155 282.495 426.047 281.574 426.648 280.418L428.342 281.366C427.559 282.794 426.421 283.932 424.927 284.781C423.452 285.63 421.831 286.054 420.065 286.054Z" fill="#777C86"/>
<path d="M445.419 285.729H442.906L433.946 276.543V285.729H432.033V266.761H433.946V275.432L442.633 266.761H445.146L435.967 275.974L445.419 285.729Z" fill="#777C86"/>
<path d="M461.424 285.729L459.648 281.068H450.578L448.803 285.729H446.781L454.13 266.761H456.097L463.445 285.729H461.424ZM451.261 279.28H458.965L455.113 269.119L451.261 279.28Z" fill="#777C86"/>
<path d="M479.013 266.761V285.729H477.1V278.142H472.511L467.266 285.729H465.08L470.407 278.061C469.041 277.826 467.903 277.185 466.993 276.137C466.082 275.071 465.627 273.843 465.627 272.452C465.627 270.88 466.182 269.543 467.293 268.441C468.422 267.321 469.779 266.761 471.364 266.761H479.013ZM471.364 276.354H477.1V268.55H471.364C470.307 268.55 469.406 268.929 468.659 269.688C467.912 270.447 467.539 271.368 467.539 272.452C467.539 273.518 467.912 274.439 468.659 275.216C469.406 275.974 470.307 276.354 471.364 276.354Z" fill="#777C86"/>
<path d="M504.697 285.729H502.184L493.224 276.543V285.729H491.311V266.761H493.224V275.432L501.911 266.761H504.424L495.245 275.974L504.697 285.729Z" fill="#777C86"/>
<path d="M505.928 285.729V284.049C507.257 284.23 508.25 283.823 508.906 282.83C509.579 281.818 509.916 279.976 509.916 277.302V266.761H522.319V285.729H520.407V268.55H511.829V277.356C511.829 279.072 511.692 280.508 511.419 281.665C511.146 282.821 510.736 283.706 510.189 284.32C509.661 284.916 509.051 285.323 508.359 285.539C507.685 285.738 506.875 285.801 505.928 285.729Z" fill="#777C86"/>
<path d="M539.537 285.729V270.284L528.883 285.729H527.244V266.761H529.156V282.206L539.81 266.761H541.449V285.729H539.537Z" fill="#777C86"/>
<path d="M558.653 266.761H560.565V285.729H558.653V276.868H548.271V285.729H546.359V266.761H548.271V275.08H558.653V266.761Z" fill="#777C86"/>
<path d="M577.768 285.729V270.284L567.114 285.729H565.475V266.761H567.387V282.206L578.041 266.761H579.68V285.729H577.768Z" fill="#777C86"/>
<path d="M597.974 285.729H595.461L586.5 276.543V285.729H584.588V266.761H586.5V275.432L595.188 266.761H597.701L588.522 275.974L597.974 285.729Z" fill="#777C86"/>
<path d="M613.979 285.729L612.203 281.068H603.133L601.357 285.729H599.336L606.684 266.761H608.651L616 285.729H613.979ZM603.816 279.28H611.52L607.668 269.119L603.816 279.28Z" fill="#777C86"/>
<path d="M153.172 260.551H155.134V291.939H153.172V260.551Z" fill="#777C86"/>
<path d="M280 0H0V28H264C267.314 28 270 30.6863 270 34V122C270 125.314 267.314 128 264 128H0V156H280C289.941 156 298 147.941 298 138V18C298 8.0589 289.941 0 280 0Z" fill="#777C86"/>
<path d="M336 0H616V28H352C348.686 28 346 30.6863 346 34V122C346 125.314 348.686 128 352 128H616V156H336C326.059 156 318 147.941 318 138V18C318 8.0589 326.059 0 336 0Z" fill="#777C86"/>
<path d="M308.001 182V221.396H347.396V228.558H300.838V182H308.001Z" fill="#777C86"/>
<path d="M447.674 182V221.396H487.07V228.558H440.512V182H447.674Z" fill="#777C86"/>
<path d="M293.674 228.558H284.721L278.851 217.814H247.614L241.744 228.558H232.791L257.86 182H268.605L293.674 228.558ZM263.233 187.372L250.698 210.651H275.767L263.233 187.372Z" fill="#777C86"/>
<path d="M239.953 182V189.236H218.465V228.558H211.302V189.236H189.814V182H239.953Z" fill="#777C86"/>
<path d="M175.488 217.814V182H182.651V228.558H175.488L139.674 192.744V228.558H132.512V182H139.674L175.488 217.814Z" fill="#777C86"/>
<path d="M118.187 207.07H78.7919V221.323L125.364 221.071V228.558H71.6289V182H125.35V189.236H78.7919V199.907H118.187V207.07Z" fill="#777C86"/>
<path d="M604.659 204.117C608.394 204.829 611.218 206.065 613.131 207.824C615.043 209.541 615.999 212.013 615.999 215.238V215.489C615.999 219.385 615.021 222.254 613.064 224.097C611.152 225.94 608.572 227.134 605.326 227.679C602.124 228.181 597.632 228.475 591.851 228.558H588.515L558.697 228.496V182H594.919C600.078 182.042 604.192 183.047 607.26 185.016C610.329 186.985 611.863 189.77 611.863 193.373V193.624C611.863 196.347 611.263 198.567 610.062 200.284C608.861 202.002 607.06 203.279 604.659 204.117ZM603.325 194.692C603.325 192.765 602.88 191.362 601.99 190.482C601.145 189.603 600.034 189.058 598.655 188.849C597.276 188.639 595.297 188.535 592.718 188.535H565.859V200.85C567.905 200.892 571.371 200.913 573.373 200.913C575.374 200.913 577.264 200.933 579.043 200.975C583.223 200.975 585.447 200.996 585.714 201.038H592.718C595.431 201.038 597.41 200.954 598.655 200.787C599.945 200.619 601.034 200.096 601.924 199.216C602.857 198.295 603.325 196.787 603.325 194.692ZM567.302 201.666H567.436L567.302 201.604V201.666ZM594.853 221.773C597.921 221.773 600.211 221.668 601.723 221.458C603.236 221.207 604.436 220.579 605.326 219.573C606.26 218.526 606.727 216.851 606.727 214.547C606.727 212.327 606.26 210.735 605.326 209.772C604.436 208.766 603.236 208.159 601.723 207.95C600.211 207.698 597.921 207.573 594.853 207.573H565.859V221.647C577.022 221.647 586.536 221.689 591.517 221.773H594.853Z" fill="#777C86"/>
<path fill-rule="evenodd" clip-rule="evenodd" d="M0 182H56.407C60.857 182 64.465 185.608 64.465 190.058V220.5C64.465 224.95 60.857 228.558 56.407 228.558H0V182ZM52.826 189.18C55.298 189.18 57.302 191.184 57.302 193.657V216.919C57.302 219.391 55.298 221.395 52.826 221.395H7.1628V189.18H52.826Z" fill="#777C86"/>
<path d="M372.465 190.058C372.465 185.608 376.073 182 380.523 182H433.349V189.163H384.105C381.632 189.163 379.628 191.167 379.628 193.64V216.919C379.628 219.391 381.632 221.396 384.105 221.396H433.349V228.558H380.523C376.073 228.558 372.465 224.951 372.465 220.5V190.058Z" fill="#777C86"/>
<path d="M543.476 228.558C547.926 228.558 551.534 224.951 551.534 220.5V182H542.58V216.919C542.58 219.391 540.576 221.396 538.104 221.396H505.871C503.399 221.396 501.394 219.391 501.394 216.919V182H492.441V220.5C492.441 224.951 496.049 228.558 500.499 228.558H543.476Z" fill="#777C86"/>
</svg>
